<svg xmlns="http://www.w3.org/2000/svg" viewBox="0 0 680 256" width="680" height="256"><rect width="680" height="256" fill="#FFFFFF" rx="14"/><defs><linearGradient id="g" x1="0" y1="0" x2="1" y2="0"><stop offset="0" stop-color="#0052FF"/><stop offset="1" stop-color="#4D7CFF"/></linearGradient><linearGradient id="gv" x1="0" y1="1" x2="0" y2="0"><stop offset="0" stop-color="#0052FF"/><stop offset="1" stop-color="#4D7CFF"/></linearGradient></defs><text x="24" y="30" font-family="Inter, -apple-system, Segoe UI, Helvetica, Arial, sans-serif" font-size="17" fill="#0F172A" font-weight="700" text-anchor="start">Cost per 1,000 documents</text><text x="24" y="50" font-family="Inter, -apple-system, Segoe UI, Helvetica, Arial, sans-serif" font-size="12.5" fill="#64748B" font-weight="400" text-anchor="start">same token volume, priced across backends — local is $0</text><text x="188" y="83.0" font-family="Inter, -apple-system, Segoe UI, Helvetica, Arial, sans-serif" font-size="13" fill="#0F172A" font-weight="500" text-anchor="end">Local (Ollama)</text><rect x="200" y="64" width="410" height="30" rx="6" fill="#E2E8F0"/><rect x="200" y="64" width="2.0" height="30" rx="6" fill="url(#g)"/><text x="210" y="83.0" font-family="Inter, -apple-system, Segoe UI, Helvetica, Arial, sans-serif" font-size="12.5" fill="#0F172A" font-weight="600" text-anchor="start">$0.00</text><text x="188" y="125.0" font-family="Inter, -apple-system, Segoe UI, Helvetica, Arial, sans-serif" font-size="13" fill="#0F172A" font-weight="500" text-anchor="end">Haiku 4.5</text><rect x="200" y="106" width="410" height="30" rx="6" fill="#E2E8F0"/><rect x="200" y="106" width="71.3" height="30" rx="6" fill="url(#g)"/><text x="279.304347826087" y="125.0" font-family="Inter, -apple-system, Segoe UI, Helvetica, Arial, sans-serif" font-size="12.5" fill="#0F172A" font-weight="600" text-anchor="start">$1.10</text><text x="188" y="167.0" font-family="Inter, -apple-system, Segoe UI, Helvetica, Arial, sans-serif" font-size="13" fill="#0F172A" font-weight="500" text-anchor="end">Sonnet 5</text><rect x="200" y="148" width="410" height="30" rx="6" fill="#E2E8F0"/><rect x="200" y="148" width="213.9" height="30" rx="6" fill="url(#g)"/><text x="421.9130434782609" y="167.0" font-family="Inter, -apple-system, Segoe UI, Helvetica, Arial, sans-serif" font-size="12.5" fill="#0F172A" font-weight="600" text-anchor="start">$3.30</text><text x="188" y="209.0" font-family="Inter, -apple-system, Segoe UI, Helvetica, Arial, sans-serif" font-size="13" fill="#0F172A" font-weight="500" text-anchor="end">Opus 4.8</text><rect x="200" y="190" width="410" height="30" rx="6" fill="#E2E8F0"/><rect x="200" y="190" width="356.5" height="30" rx="6" fill="url(#g)"/><text x="564.5217391304348" y="209.0" font-family="Inter, -apple-system, Segoe UI, Helvetica, Arial, sans-serif" font-size="12.5" fill="#0F172A" font-weight="600" text-anchor="start">$5.50</text></svg>